<svg xmlns="http://www.w3.org/2000/svg" xmlns:xlink="http://www.w3.org/1999/xlink" width="1366" zoomAndPan="magnify" viewBox="0 0 1024.5 576" height="768" preserveAspectRatio="xMidYMid meet" version="1.0"><defs><clipPath id="caf3fdeef1"><path d="M 0 0.140625 L 1024 0.140625 L 1024 575.859375 L 0 575.859375 Z M 0 0.140625 " clip-rule="nonzero"/></clipPath><clipPath id="b2e76db4a9"><path d="M 554 392 L 620 392 L 620 402.992188 L 554 402.992188 Z M 554 392 " clip-rule="nonzero"/></clipPath><clipPath id="02c72bf254"><path d="M 479 392 L 545 392 L 545 402.992188 L 479 402.992188 Z M 479 392 " clip-rule="nonzero"/></clipPath><clipPath id="9d6b24d181"><path d="M 404 392 L 470 392 L 470 402.992188 L 404 402.992188 Z M 404 392 " clip-rule="nonzero"/></clipPath></defs><g clip-path="url(#caf3fdeef1)"><path fill="#121214" d="M 0 0.140625 L 1024 0.140625 L 1024 575.859375 L 0 575.859375 Z M 0 0.140625 " fill-opacity="1" fill-rule="nonzero"/><path fill="#121214" d="M 0 0.140625 L 1024 0.140625 L 1024 575.859375 L 0 575.859375 Z M 0 0.140625 " fill-opacity="1" fill-rule="nonzero"/></g><path fill="#fd9003" d="M 462.804688 320.625 C 462.804688 321.476562 462.761719 322.332031 462.675781 323.183594 C 462.59375 324.035156 462.46875 324.878906 462.300781 325.71875 C 462.132812 326.554688 461.925781 327.386719 461.675781 328.203125 C 461.429688 329.023438 461.140625 329.828125 460.8125 330.617188 C 460.484375 331.40625 460.121094 332.179688 459.714844 332.933594 C 459.3125 333.6875 458.871094 334.421875 458.394531 335.132812 C 457.921875 335.84375 457.410156 336.527344 456.867188 337.191406 C 456.324219 337.851562 455.75 338.484375 455.144531 339.089844 C 454.539062 339.691406 453.902344 340.265625 453.242188 340.808594 C 452.578125 341.351562 451.894531 341.859375 451.179688 342.335938 C 450.46875 342.8125 449.734375 343.25 448.980469 343.652344 C 448.222656 344.058594 447.449219 344.421875 446.660156 344.75 C 445.867188 345.078125 445.0625 345.363281 444.242188 345.613281 C 443.421875 345.859375 442.59375 346.070312 441.753906 346.234375 C 440.914062 346.402344 440.066406 346.527344 439.214844 346.609375 C 438.363281 346.695312 437.507812 346.738281 436.652344 346.738281 C 435.796875 346.738281 434.941406 346.695312 434.089844 346.609375 C 433.234375 346.527344 432.390625 346.402344 431.550781 346.234375 C 430.710938 346.070312 429.878906 345.859375 429.058594 345.613281 C 428.242188 345.363281 427.433594 345.078125 426.644531 344.75 C 425.851562 344.421875 425.078125 344.058594 424.324219 343.652344 C 423.566406 343.25 422.835938 342.8125 422.121094 342.335938 C 421.410156 341.859375 420.722656 341.351562 420.0625 340.808594 C 419.398438 340.265625 418.765625 339.691406 418.160156 339.089844 C 417.554688 338.484375 416.980469 337.851562 416.4375 337.191406 C 415.890625 336.527344 415.382812 335.84375 414.90625 335.132812 C 414.429688 334.421875 413.992188 333.6875 413.585938 332.933594 C 413.183594 332.179688 412.816406 331.40625 412.488281 330.617188 C 412.164062 329.828125 411.875 329.023438 411.625 328.203125 C 411.375 327.386719 411.167969 326.554688 411 325.71875 C 410.835938 324.878906 410.710938 324.035156 410.625 323.183594 C 410.542969 322.332031 410.5 321.476562 410.5 320.625 C 410.5 319.769531 410.542969 318.914062 410.625 318.0625 C 410.710938 317.210938 410.835938 316.367188 411 315.527344 C 411.167969 314.691406 411.375 313.859375 411.625 313.042969 C 411.875 312.222656 412.164062 311.421875 412.488281 310.628906 C 412.816406 309.839844 413.183594 309.066406 413.585938 308.3125 C 413.992188 307.558594 414.429688 306.828125 414.90625 306.113281 C 415.382812 305.402344 415.890625 304.71875 416.4375 304.058594 C 416.980469 303.394531 417.554688 302.761719 418.160156 302.15625 C 418.765625 301.554688 419.398438 300.980469 420.0625 300.4375 C 420.722656 299.894531 421.410156 299.386719 422.121094 298.910156 C 422.835938 298.433594 423.566406 297.996094 424.324219 297.59375 C 425.078125 297.191406 425.851562 296.824219 426.644531 296.496094 C 427.433594 296.167969 428.242188 295.882812 429.058594 295.632812 C 429.878906 295.386719 430.710938 295.179688 431.550781 295.011719 C 432.390625 294.84375 433.234375 294.71875 434.089844 294.636719 C 434.941406 294.550781 435.796875 294.507812 436.652344 294.507812 C 437.507812 294.507812 438.363281 294.550781 439.214844 294.636719 C 440.066406 294.71875 440.914062 294.84375 441.753906 295.011719 C 442.59375 295.179688 443.421875 295.386719 444.242188 295.632812 C 445.0625 295.882812 445.867188 296.167969 446.660156 296.496094 C 447.449219 296.824219 448.222656 297.191406 448.980469 297.59375 C 449.734375 297.996094 450.46875 298.433594 451.179688 298.910156 C 451.894531 299.386719 452.578125 299.894531 453.242188 300.4375 C 453.902344 300.980469 454.539062 301.554688 455.144531 302.15625 C 455.75 302.761719 456.324219 303.394531 456.867188 304.058594 C 457.410156 304.71875 457.921875 305.402344 458.394531 306.113281 C 458.871094 306.828125 459.3125 307.558594 459.714844 308.3125 C 460.121094 309.066406 460.484375 309.839844 460.8125 310.628906 C 461.140625 311.421875 461.429688 312.222656 461.675781 313.042969 C 461.925781 313.859375 462.132812 314.691406 462.300781 315.527344 C 462.46875 316.367188 462.59375 317.210938 462.675781 318.0625 C 462.761719 318.914062 462.804688 319.769531 462.804688 320.625 Z M 462.804688 320.625 " fill-opacity="1" fill-rule="nonzero"/><path fill="#fd9003" d="M 535.785156 297.96875 C 535.785156 298.824219 535.742188 299.675781 535.65625 300.527344 C 535.574219 301.378906 535.449219 302.222656 535.28125 303.0625 C 535.113281 303.902344 534.90625 304.730469 534.65625 305.550781 C 534.410156 306.367188 534.121094 307.171875 533.792969 307.960938 C 533.464844 308.753906 533.097656 309.523438 532.695312 310.277344 C 532.292969 311.03125 531.851562 311.765625 531.375 312.476562 C 530.898438 313.1875 530.390625 313.875 529.847656 314.535156 C 529.304688 315.195312 528.730469 315.828125 528.125 316.433594 C 527.519531 317.039062 526.882812 317.613281 526.222656 318.15625 C 525.558594 318.699219 524.871094 319.207031 524.160156 319.683594 C 523.449219 320.15625 522.714844 320.597656 521.960938 321 C 521.203125 321.402344 520.429688 321.769531 519.640625 322.09375 C 518.847656 322.421875 518.042969 322.710938 517.222656 322.957031 C 516.402344 323.207031 515.574219 323.414062 514.734375 323.582031 C 513.894531 323.746094 513.046875 323.875 512.195312 323.957031 C 511.34375 324.039062 510.488281 324.082031 509.632812 324.082031 C 508.773438 324.082031 507.921875 324.039062 507.066406 323.957031 C 506.214844 323.875 505.371094 323.746094 504.53125 323.582031 C 503.6875 323.414062 502.859375 323.207031 502.039062 322.957031 C 501.21875 322.710938 500.414062 322.421875 499.625 322.09375 C 498.832031 321.769531 498.058594 321.402344 497.304688 321 C 496.546875 320.597656 495.8125 320.15625 495.101562 319.683594 C 494.390625 319.207031 493.703125 318.699219 493.039062 318.15625 C 492.378906 317.613281 491.746094 317.039062 491.140625 316.433594 C 490.535156 315.828125 489.957031 315.195312 489.414062 314.535156 C 488.871094 313.875 488.363281 313.1875 487.886719 312.476562 C 487.410156 311.765625 486.972656 311.03125 486.566406 310.277344 C 486.164062 309.523438 485.796875 308.753906 485.46875 307.960938 C 485.140625 307.171875 484.855469 306.367188 484.605469 305.550781 C 484.355469 304.730469 484.148438 303.902344 483.980469 303.0625 C 483.816406 302.222656 483.6875 301.378906 483.605469 300.527344 C 483.519531 299.675781 483.480469 298.824219 483.480469 297.96875 C 483.480469 297.113281 483.519531 296.261719 483.605469 295.410156 C 483.6875 294.558594 483.816406 293.714844 483.980469 292.875 C 484.148438 292.035156 484.355469 291.207031 484.605469 290.386719 C 484.855469 289.570312 485.140625 288.765625 485.46875 287.976562 C 485.796875 287.183594 486.164062 286.414062 486.566406 285.660156 C 486.972656 284.90625 487.410156 284.171875 487.886719 283.460938 C 488.363281 282.75 488.871094 282.0625 489.414062 281.402344 C 489.957031 280.742188 490.535156 280.109375 491.140625 279.503906 C 491.746094 278.898438 492.378906 278.324219 493.039062 277.78125 C 493.703125 277.238281 494.390625 276.730469 495.101562 276.257812 C 495.8125 275.78125 496.546875 275.339844 497.304688 274.9375 C 498.058594 274.535156 498.832031 274.171875 499.625 273.84375 C 500.414062 273.515625 501.21875 273.226562 502.039062 272.980469 C 502.859375 272.730469 503.6875 272.523438 504.53125 272.355469 C 505.371094 272.191406 506.214844 272.066406 507.066406 271.980469 C 507.921875 271.898438 508.773438 271.855469 509.632812 271.855469 C 510.488281 271.855469 511.34375 271.898438 512.195312 271.980469 C 513.046875 272.066406 513.894531 272.191406 514.734375 272.355469 C 515.574219 272.523438 516.402344 272.730469 517.222656 272.980469 C 518.042969 273.226562 518.847656 273.515625 519.640625 273.84375 C 520.429688 274.171875 521.203125 274.535156 521.960938 274.9375 C 522.714844 275.339844 523.449219 275.78125 524.160156 276.257812 C 524.871094 276.730469 525.558594 277.238281 526.222656 277.78125 C 526.882812 278.324219 527.519531 278.898438 528.125 279.503906 C 528.730469 280.109375 529.304688 280.742188 529.847656 281.402344 C 530.390625 282.0625 530.898438 282.75 531.375 283.460938 C 531.851562 284.171875 532.292969 284.90625 532.695312 285.660156 C 533.097656 286.414062 533.464844 287.183594 533.792969 287.976562 C 534.121094 288.765625 534.410156 289.570312 534.65625 290.386719 C 534.90625 291.207031 535.113281 292.035156 535.28125 292.875 C 535.449219 293.714844 535.574219 294.558594 535.65625 295.410156 C 535.742188 296.261719 535.785156 297.113281 535.785156 297.96875 Z M 535.785156 297.96875 " fill-opacity="1" fill-rule="nonzero"/><path fill="#fd9003" d="M 609.210938 278.214844 C 609.210938 279.0625 609.167969 279.910156 609.085938 280.753906 C 609.003906 281.597656 608.878906 282.433594 608.710938 283.265625 C 608.546875 284.097656 608.339844 284.921875 608.09375 285.730469 C 607.847656 286.542969 607.5625 287.339844 607.238281 288.125 C 606.910156 288.90625 606.550781 289.671875 606.148438 290.421875 C 605.75 291.167969 605.3125 291.894531 604.839844 292.601562 C 604.367188 293.304688 603.863281 293.984375 603.324219 294.640625 C 602.785156 295.296875 602.214844 295.925781 601.617188 296.523438 C 601.015625 297.125 600.386719 297.691406 599.730469 298.230469 C 599.074219 298.769531 598.394531 299.273438 597.6875 299.742188 C 596.980469 300.214844 596.253906 300.648438 595.503906 301.050781 C 594.753906 301.449219 593.988281 301.8125 593.203125 302.136719 C 592.417969 302.460938 591.621094 302.746094 590.808594 302.992188 C 589.996094 303.238281 589.171875 303.445312 588.339844 303.609375 C 587.507812 303.773438 586.667969 303.898438 585.824219 303.980469 C 584.976562 304.066406 584.132812 304.105469 583.28125 304.105469 C 582.433594 304.105469 581.585938 304.066406 580.742188 303.980469 C 579.894531 303.898438 579.054688 303.773438 578.222656 303.609375 C 577.390625 303.445312 576.566406 303.238281 575.753906 302.992188 C 574.941406 302.746094 574.144531 302.460938 573.359375 302.136719 C 572.574219 301.8125 571.808594 301.449219 571.058594 301.050781 C 570.308594 300.648438 569.582031 300.214844 568.875 299.742188 C 568.171875 299.273438 567.488281 298.769531 566.832031 298.230469 C 566.175781 297.691406 565.546875 297.125 564.949219 296.523438 C 564.347656 295.925781 563.777344 295.296875 563.238281 294.640625 C 562.699219 293.984375 562.195312 293.304688 561.722656 292.601562 C 561.25 291.894531 560.816406 291.167969 560.414062 290.421875 C 560.015625 289.671875 559.652344 288.90625 559.328125 288.125 C 559 287.339844 558.714844 286.542969 558.46875 285.730469 C 558.222656 284.921875 558.015625 284.097656 557.851562 283.265625 C 557.6875 282.433594 557.5625 281.597656 557.476562 280.753906 C 557.394531 279.910156 557.351562 279.0625 557.351562 278.214844 C 557.351562 277.367188 557.394531 276.523438 557.476562 275.679688 C 557.5625 274.835938 557.6875 273.996094 557.851562 273.164062 C 558.015625 272.332031 558.222656 271.511719 558.46875 270.699219 C 558.714844 269.890625 559 269.089844 559.328125 268.308594 C 559.652344 267.523438 560.015625 266.757812 560.414062 266.011719 C 560.816406 265.261719 561.25 264.535156 561.722656 263.832031 C 562.195312 263.125 562.699219 262.445312 563.238281 261.792969 C 563.777344 261.136719 564.347656 260.507812 564.949219 259.910156 C 565.546875 259.308594 566.175781 258.742188 566.832031 258.203125 C 567.488281 257.664062 568.171875 257.160156 568.875 256.6875 C 569.582031 256.21875 570.308594 255.78125 571.058594 255.382812 C 571.808594 254.984375 572.574219 254.621094 573.359375 254.296875 C 574.144531 253.972656 574.941406 253.6875 575.753906 253.441406 C 576.566406 253.195312 577.390625 252.988281 578.222656 252.824219 C 579.054688 252.65625 579.894531 252.53125 580.742188 252.449219 C 581.585938 252.367188 582.433594 252.324219 583.28125 252.324219 C 584.132812 252.324219 584.976562 252.367188 585.824219 252.449219 C 586.667969 252.53125 587.507812 252.65625 588.339844 252.824219 C 589.171875 252.988281 589.996094 253.195312 590.808594 253.441406 C 591.621094 253.6875 592.417969 253.972656 593.203125 254.296875 C 593.988281 254.621094 594.753906 254.984375 595.503906 255.382812 C 596.253906 255.78125 596.980469 256.21875 597.6875 256.6875 C 598.394531 257.160156 599.074219 257.664062 599.730469 258.203125 C 600.386719 258.738281 601.015625 259.308594 601.617188 259.910156 C 602.214844 260.507812 602.785156 261.136719 603.324219 261.792969 C 603.863281 262.445312 604.367188 263.125 604.839844 263.832031 C 605.3125 264.535156 605.75 265.261719 606.148438 266.011719 C 606.550781 266.757812 606.910156 267.523438 607.238281 268.308594 C 607.5625 269.089844 607.847656 269.890625 608.09375 270.699219 C 608.339844 271.511719 608.546875 272.332031 608.710938 273.164062 C 608.878906 273.996094 609.003906 274.835938 609.085938 275.679688 C 609.167969 276.523438 609.210938 277.367188 609.210938 278.214844 Z M 609.210938 278.214844 " fill-opacity="1" fill-rule="nonzero"/><path fill="#fd9003" d="M 557.6875 325.535156 L 614.238281 325.535156 L 614.238281 395.394531 L 557.6875 395.394531 Z M 557.6875 325.535156 " fill-opacity="1" fill-rule="nonzero"/><path fill="#fd9003" d="M 484.375 345.398438 L 539.472656 345.398438 L 539.472656 397.515625 L 484.375 397.515625 Z M 484.375 345.398438 " fill-opacity="1" fill-rule="nonzero"/><path fill="#fd9003" d="M 409.71875 365.039062 L 464.589844 365.039062 L 464.589844 398.964844 L 409.71875 398.964844 Z M 409.71875 365.039062 " fill-opacity="1" fill-rule="nonzero"/><path fill="#fd9003" d="M 553.554688 324.082031 C 553.554688 321.070312 556.011719 318.726562 558.917969 318.726562 L 613.121094 318.726562 C 616.140625 318.726562 618.488281 321.179688 618.488281 324.082031 C 618.488281 327.097656 616.027344 329.4375 613.121094 329.4375 L 558.917969 329.4375 C 556.011719 329.4375 553.554688 326.984375 553.554688 324.082031 Z M 553.554688 324.082031 " fill-opacity="1" fill-rule="nonzero"/><path fill="#fd9003" d="M 553.886719 345.398438 C 553.886719 342.382812 556.460938 339.816406 559.363281 339.816406 L 613.457031 339.707031 C 616.476562 339.707031 618.820312 342.609375 618.820312 345.507812 C 618.820312 348.523438 616.363281 350.867188 613.457031 350.867188 L 559.253906 350.867188 C 556.234375 350.753906 553.886719 348.300781 553.886719 345.398438 Z M 553.886719 345.398438 " fill-opacity="1" fill-rule="nonzero"/><path fill="#fd9003" d="M 553.886719 366.15625 C 553.886719 363.140625 556.347656 360.796875 559.253906 360.796875 L 613.457031 360.796875 C 616.476562 360.796875 618.820312 363.253906 618.820312 366.15625 C 618.820312 369.167969 616.363281 371.511719 613.457031 371.511719 L 559.253906 371.511719 C 556.234375 371.511719 553.886719 369.167969 553.886719 366.15625 Z M 553.886719 366.15625 " fill-opacity="1" fill-rule="nonzero"/><path fill="#fd9003" d="M 553.886719 386.914062 C 553.886719 383.898438 556.347656 381.554688 559.253906 381.554688 L 613.457031 381.554688 C 616.476562 381.554688 618.820312 384.011719 618.820312 386.914062 C 618.820312 389.925781 616.363281 392.269531 613.457031 392.269531 L 559.253906 392.269531 C 556.234375 392.378906 553.886719 389.925781 553.886719 386.914062 Z M 553.886719 386.914062 " fill-opacity="1" fill-rule="nonzero"/><path fill="#fd9003" d="M 479.121094 345.398438 C 479.121094 342.382812 481.578125 340.042969 484.484375 340.042969 L 538.6875 340.042969 C 541.707031 340.042969 544.054688 342.496094 544.054688 345.398438 C 544.054688 348.410156 541.59375 350.753906 538.6875 350.753906 L 484.484375 350.753906 C 481.46875 350.753906 479.121094 348.300781 479.121094 345.398438 Z M 479.121094 345.398438 " fill-opacity="1" fill-rule="nonzero"/><path fill="#fd9003" d="M 479.121094 366.15625 C 479.121094 363.140625 481.578125 360.796875 484.484375 360.796875 L 538.6875 360.796875 C 541.707031 360.796875 544.054688 363.253906 544.054688 366.15625 C 544.054688 369.167969 541.59375 371.511719 538.6875 371.511719 L 484.484375 371.511719 C 481.46875 371.511719 479.121094 369.167969 479.121094 366.15625 Z M 479.121094 366.15625 " fill-opacity="1" fill-rule="nonzero"/><path fill="#fd9003" d="M 479.121094 386.914062 C 479.121094 383.898438 481.578125 381.554688 484.484375 381.554688 L 538.6875 381.554688 C 541.707031 381.554688 544.054688 384.011719 544.054688 386.914062 C 544.054688 389.925781 541.59375 392.269531 538.6875 392.269531 L 484.484375 392.269531 C 481.46875 392.378906 479.121094 389.925781 479.121094 386.914062 Z M 479.121094 386.914062 " fill-opacity="1" fill-rule="nonzero"/><path fill="#fd9003" d="M 404.351562 366.15625 C 404.351562 363.140625 406.8125 360.796875 409.71875 360.796875 L 463.921875 360.796875 C 466.9375 360.796875 469.285156 363.253906 469.285156 366.15625 C 469.285156 369.167969 466.828125 371.511719 463.921875 371.511719 L 409.71875 371.511719 C 406.8125 371.511719 404.351562 369.167969 404.351562 366.15625 Z M 404.351562 366.15625 " fill-opacity="1" fill-rule="nonzero"/><path fill="#fd9003" d="M 404.351562 386.914062 C 404.351562 383.898438 406.8125 381.554688 409.71875 381.554688 L 463.921875 381.554688 C 466.9375 381.554688 469.285156 384.011719 469.285156 386.914062 C 469.285156 389.925781 466.828125 392.269531 463.921875 392.269531 L 409.71875 392.269531 C 406.8125 392.378906 404.351562 389.925781 404.351562 386.914062 Z M 404.351562 386.914062 " fill-opacity="1" fill-rule="nonzero"/><path fill="#fd9003" d="M 583.730469 250.09375 C 568.527344 250.09375 556.125 262.371094 556.125 277.65625 C 556.125 292.945312 568.417969 305.222656 583.730469 305.222656 C 598.929688 305.222656 611.332031 292.945312 611.332031 277.65625 C 611.332031 262.371094 598.929688 250.09375 583.730469 250.09375 Z M 583.730469 302.433594 C 570.09375 302.433594 559.03125 291.382812 559.03125 277.769531 C 559.03125 264.15625 570.09375 253.105469 583.730469 253.105469 C 597.363281 253.105469 608.429688 264.15625 608.429688 277.769531 C 608.429688 291.382812 597.363281 302.433594 583.730469 302.433594 Z M 583.730469 302.433594 " fill-opacity="1" fill-rule="nonzero"/><path fill="#fd9003" d="M 509.40625 270.515625 C 494.207031 270.515625 481.914062 282.792969 481.914062 297.96875 C 481.914062 313.144531 494.207031 325.535156 509.519531 325.535156 C 524.71875 325.535156 537.125 313.257812 537.125 297.96875 C 537.125 282.679688 524.71875 270.515625 509.40625 270.515625 Z M 509.519531 322.855469 C 495.882812 322.855469 484.820312 311.808594 484.820312 298.191406 C 484.820312 284.578125 495.882812 273.527344 509.519531 273.527344 C 523.15625 273.527344 534.21875 284.578125 534.21875 298.191406 C 534.21875 311.808594 523.15625 322.855469 509.519531 322.855469 Z M 509.519531 322.855469 " fill-opacity="1" fill-rule="nonzero"/><path fill="#fd9003" d="M 436.652344 292.835938 C 421.453125 292.835938 409.046875 305.109375 409.046875 320.398438 C 409.046875 335.578125 421.339844 347.964844 436.652344 347.964844 C 451.960938 347.964844 464.257812 335.6875 464.257812 320.398438 C 464.257812 305.109375 451.851562 292.835938 436.652344 292.835938 Z M 436.761719 345.175781 C 423.128906 345.175781 412.0625 334.125 412.0625 320.511719 C 412.0625 306.898438 423.128906 295.847656 436.761719 295.847656 C 450.398438 295.847656 461.460938 306.898438 461.460938 320.511719 C 461.351562 334.125 450.398438 345.175781 436.761719 345.175781 Z M 436.761719 345.175781 " fill-opacity="1" fill-rule="nonzero"/><path fill="#fd9003" d="M 591.105469 280.894531 C 590.433594 280.113281 589.652344 279.554688 588.644531 279.109375 C 587.527344 278.664062 586.1875 278.214844 584.398438 277.769531 C 582.835938 277.324219 581.492188 276.988281 580.597656 276.652344 C 579.59375 276.207031 578.699219 275.648438 577.917969 274.980469 C 577.136719 274.199219 576.6875 273.082031 576.6875 271.632812 C 576.6875 269.734375 577.359375 268.285156 578.8125 267.167969 C 580.152344 266.164062 581.828125 265.605469 584.0625 265.605469 C 585.628906 265.605469 586.96875 265.828125 588.085938 266.273438 C 589.203125 266.722656 590.433594 267.503906 591.550781 268.394531 C 591.664062 268.507812 591.777344 268.507812 591.886719 268.507812 C 591.886719 268.507812 591.886719 268.394531 591.886719 268.285156 C 591.886719 268.171875 591.886719 268.0625 591.664062 267.835938 C 590.882812 267.054688 589.988281 266.5 588.871094 266.050781 C 587.753906 265.605469 586.523438 265.269531 585.292969 265.160156 L 584.289062 265.046875 L 584.289062 261.140625 C 584.289062 261.03125 584.289062 260.917969 584.289062 260.917969 L 584.175781 260.917969 C 584.0625 260.917969 584.0625 260.917969 584.0625 260.917969 C 584.0625 260.917969 583.953125 261.03125 583.953125 261.140625 L 583.953125 265.046875 L 582.945312 265.160156 C 581.492188 265.269531 580.265625 265.71875 579.148438 266.273438 C 578.027344 266.832031 577.246094 267.613281 576.6875 268.507812 C 576.128906 269.398438 575.792969 270.402344 575.792969 271.632812 C 575.792969 272.972656 576.128906 274.085938 576.800781 274.867188 C 577.46875 275.761719 578.363281 276.320312 579.371094 276.765625 C 580.488281 277.210938 581.941406 277.65625 583.839844 278.105469 C 585.40625 278.4375 586.523438 278.773438 587.527344 279.109375 C 588.535156 279.445312 589.429688 280 590.097656 280.671875 C 590.882812 281.453125 591.214844 282.457031 591.214844 283.683594 C 591.214844 285.582031 590.546875 287.03125 589.09375 288.148438 C 587.753906 289.152344 585.964844 289.597656 583.839844 289.597656 C 581.046875 289.597656 578.363281 288.59375 575.683594 286.808594 C 575.570312 286.699219 575.347656 286.699219 575.347656 286.585938 C 575.347656 286.585938 575.347656 286.699219 575.347656 286.808594 C 575.347656 287.03125 575.347656 287.144531 575.570312 287.253906 C 576.464844 288.035156 577.582031 288.707031 578.8125 289.152344 C 580.152344 289.597656 581.492188 289.933594 582.945312 290.046875 L 583.953125 290.15625 L 583.953125 294.285156 L 584.0625 294.285156 C 584.175781 294.285156 584.175781 294.285156 584.175781 294.285156 L 584.175781 290.15625 L 585.183594 290.046875 C 587.304688 289.820312 588.980469 289.042969 590.210938 287.925781 C 591.441406 286.808594 592 285.46875 592 283.796875 C 592 282.570312 591.664062 281.675781 591.105469 280.894531 Z M 591.105469 280.894531 " fill-opacity="1" fill-rule="nonzero"/><path fill="#fd9003" d="M 589.539062 277.101562 C 588.421875 276.652344 586.859375 276.207031 584.957031 275.648438 C 583.394531 275.316406 582.164062 274.867188 581.382812 274.535156 C 580.597656 274.199219 580.039062 273.863281 579.480469 273.304688 C 579.035156 272.859375 578.921875 272.300781 578.921875 271.519531 C 578.921875 270.292969 579.371094 269.511719 580.152344 268.84375 C 581.046875 268.171875 582.386719 267.726562 584.0625 267.726562 C 585.292969 267.726562 586.410156 267.949219 587.304688 268.285156 C 588.199219 268.617188 589.203125 269.289062 590.210938 270.070312 C 590.769531 270.515625 591.328125 270.738281 591.886719 270.738281 C 592.335938 270.738281 592.894531 270.628906 593.453125 269.957031 C 593.789062 269.511719 594.011719 268.953125 594.011719 268.394531 C 594.011719 267.613281 593.675781 266.832031 593.003906 266.273438 C 592.109375 265.269531 590.882812 264.488281 589.539062 264.042969 C 588.535156 263.597656 587.417969 263.375 586.410156 263.148438 L 586.410156 261.253906 C 586.410156 260.359375 586.074219 259.800781 585.742188 259.46875 C 585.292969 259.019531 584.734375 258.796875 583.953125 258.796875 C 583.28125 258.796875 582.722656 259.019531 582.164062 259.578125 C 581.71875 260.027344 581.492188 260.695312 581.492188 261.363281 L 581.492188 263.261719 C 580.152344 263.484375 578.921875 263.929688 577.804688 264.488281 C 576.464844 265.269531 575.347656 266.273438 574.5625 267.503906 C 573.78125 268.730469 573.335938 270.179688 573.335938 271.742188 C 573.335938 273.640625 573.894531 275.203125 574.789062 276.429688 C 575.683594 277.546875 576.910156 278.328125 578.253906 278.886719 C 579.480469 279.332031 581.046875 279.890625 583.058594 280.335938 C 584.511719 280.671875 585.628906 281.007812 586.410156 281.339844 C 587.082031 281.5625 587.753906 282.011719 588.199219 282.457031 C 588.535156 282.792969 588.757812 283.238281 588.757812 283.90625 C 588.757812 285.136719 588.421875 285.917969 587.527344 286.585938 C 586.632812 287.253906 585.292969 287.589844 583.503906 287.589844 C 581.160156 287.589844 578.921875 286.808594 576.574219 285.136719 C 575.90625 284.6875 575.457031 284.578125 574.898438 284.578125 C 574.230469 284.578125 573.671875 284.910156 573.335938 285.359375 C 573 285.804688 572.777344 286.363281 572.777344 286.921875 C 572.777344 287.8125 573.113281 288.484375 573.78125 289.042969 C 574.898438 290.046875 576.242188 290.828125 577.804688 291.382812 C 579.035156 291.832031 580.265625 292.054688 581.492188 292.277344 L 581.492188 294.175781 C 581.492188 295.066406 581.828125 295.625 582.164062 295.960938 C 582.609375 296.40625 583.171875 296.628906 583.953125 296.628906 C 584.621094 296.628906 585.292969 296.40625 585.742188 295.960938 C 586.074219 295.625 586.410156 295.066406 586.410156 294.175781 L 586.410156 292.164062 C 588.535156 291.71875 590.324219 290.9375 591.664062 289.597656 C 593.339844 288.035156 594.121094 286.140625 594.121094 283.796875 C 594.121094 282.011719 593.675781 280.558594 592.667969 279.445312 C 591.886719 278.4375 590.769531 277.65625 589.539062 277.101562 Z M 590.210938 288.035156 C 588.980469 289.152344 587.304688 289.933594 585.183594 290.15625 L 584.175781 290.269531 L 584.175781 294.175781 C 584.175781 294.285156 584.175781 294.398438 584.175781 294.398438 L 584.0625 294.398438 C 583.953125 294.398438 583.953125 294.398438 583.953125 294.398438 L 583.953125 290.269531 L 582.945312 290.15625 C 581.492188 290.046875 580.152344 289.820312 578.8125 289.265625 C 577.582031 288.816406 576.464844 288.148438 575.570312 287.367188 C 575.457031 287.253906 575.347656 287.144531 575.347656 286.921875 C 575.347656 286.808594 575.347656 286.808594 575.347656 286.699219 C 575.457031 286.699219 575.570312 286.808594 575.683594 286.921875 C 578.363281 288.816406 581.160156 289.710938 583.839844 289.710938 C 586.074219 289.710938 587.863281 289.265625 589.09375 288.261719 C 590.433594 287.253906 591.214844 285.691406 591.214844 283.796875 C 591.214844 282.570312 590.769531 281.5625 590.097656 280.78125 C 589.429688 280.113281 588.535156 279.554688 587.527344 279.21875 C 586.632812 278.886719 585.40625 278.550781 583.839844 278.214844 C 581.941406 277.769531 580.488281 277.324219 579.371094 276.875 C 578.363281 276.429688 577.46875 275.871094 576.800781 274.980469 C 576.128906 274.199219 575.792969 273.082031 575.792969 271.742188 C 575.792969 270.628906 576.015625 269.621094 576.6875 268.617188 C 577.246094 267.726562 578.027344 266.945312 579.148438 266.386719 C 580.265625 265.828125 581.492188 265.382812 582.945312 265.269531 L 583.953125 265.160156 L 583.953125 261.253906 C 583.953125 261.140625 583.953125 261.03125 584.0625 261.03125 C 584.0625 261.03125 584.0625 261.03125 584.175781 261.03125 C 584.289062 261.03125 584.289062 261.03125 584.289062 261.03125 L 584.289062 265.160156 L 585.292969 265.269531 C 586.523438 265.382812 587.753906 265.71875 588.871094 266.164062 C 589.988281 266.609375 590.882812 267.167969 591.664062 267.949219 C 591.886719 268.171875 591.886719 268.285156 591.886719 268.394531 C 591.886719 268.507812 591.886719 268.507812 591.886719 268.617188 C 591.777344 268.617188 591.777344 268.507812 591.550781 268.507812 C 590.324219 267.503906 589.203125 266.832031 588.085938 266.386719 C 586.96875 265.941406 585.515625 265.71875 584.0625 265.71875 C 581.941406 265.71875 580.152344 266.273438 578.8125 267.28125 C 577.46875 268.394531 576.6875 269.847656 576.6875 271.742188 C 576.6875 273.082031 577.136719 274.199219 577.917969 275.089844 C 578.585938 275.871094 579.59375 276.429688 580.597656 276.765625 C 581.492188 277.101562 582.835938 277.546875 584.398438 277.882812 C 586.1875 278.328125 587.640625 278.773438 588.644531 279.21875 C 589.652344 279.554688 590.433594 280.226562 591.105469 281.007812 C 591.664062 281.675781 592 282.679688 592 283.90625 C 592 285.582031 591.441406 286.921875 590.210938 288.035156 Z M 590.210938 288.035156 " fill-opacity="1" fill-rule="nonzero"/><path fill="#fd9003" d="M 516.785156 301.316406 C 516.113281 300.535156 515.332031 299.976562 514.324219 299.53125 C 513.207031 299.085938 511.867188 298.636719 510.078125 298.191406 C 508.515625 297.746094 507.171875 297.410156 506.277344 297.074219 C 505.273438 296.628906 504.378906 296.070312 503.597656 295.402344 C 502.8125 294.621094 502.367188 293.503906 502.367188 292.054688 C 502.367188 290.15625 503.039062 288.707031 504.492188 287.589844 C 505.832031 286.585938 507.507812 286.027344 509.742188 286.027344 C 511.308594 286.027344 512.648438 286.25 513.765625 286.699219 C 514.882812 287.144531 516.113281 287.925781 517.230469 288.816406 C 517.34375 288.929688 517.453125 288.929688 517.566406 288.929688 C 517.566406 288.929688 517.566406 288.816406 517.566406 288.707031 C 517.566406 288.59375 517.566406 288.484375 517.34375 288.261719 C 516.558594 287.480469 515.667969 286.921875 514.546875 286.472656 C 513.429688 286.027344 512.203125 285.691406 510.972656 285.582031 L 509.964844 285.46875 L 509.964844 281.5625 C 509.964844 281.453125 509.964844 281.339844 509.964844 281.339844 L 509.855469 281.339844 C 509.742188 281.339844 509.742188 281.339844 509.742188 281.339844 C 509.742188 281.339844 509.632812 281.453125 509.632812 281.5625 L 509.632812 285.46875 L 508.625 285.582031 C 507.171875 285.691406 505.941406 286.140625 504.824219 286.699219 C 503.707031 287.253906 502.925781 288.035156 502.367188 288.929688 C 501.808594 289.820312 501.472656 290.828125 501.472656 292.054688 C 501.472656 293.394531 501.808594 294.507812 502.480469 295.289062 C 503.148438 296.183594 504.042969 296.742188 505.050781 297.1875 C 506.167969 297.632812 507.621094 298.082031 509.519531 298.527344 C 511.085938 298.863281 512.203125 299.195312 513.207031 299.53125 C 514.214844 299.867188 515.109375 300.425781 515.777344 301.09375 C 516.558594 301.875 516.894531 302.878906 516.894531 304.105469 C 516.894531 306.003906 516.226562 307.453125 514.773438 308.570312 C 513.429688 309.574219 511.644531 310.019531 509.519531 310.019531 C 506.726562 310.019531 504.042969 309.015625 501.359375 307.230469 C 501.25 307.121094 501.027344 307.121094 501.027344 307.007812 C 501.027344 307.007812 501.027344 307.121094 501.027344 307.230469 C 501.027344 307.453125 501.027344 307.566406 501.25 307.679688 C 502.144531 308.460938 503.261719 309.128906 504.492188 309.574219 C 505.832031 310.019531 507.171875 310.355469 508.625 310.46875 L 509.632812 310.578125 L 509.632812 314.707031 L 509.742188 314.707031 C 509.855469 314.707031 509.855469 314.707031 509.855469 314.707031 L 509.855469 310.578125 L 510.859375 310.46875 C 512.984375 310.246094 514.660156 309.464844 515.890625 308.347656 C 517.121094 307.230469 517.679688 305.890625 517.679688 304.21875 C 517.789062 302.992188 517.453125 301.988281 516.785156 301.316406 Z M 516.785156 301.316406 " fill-opacity="1" fill-rule="nonzero"/><path fill="#fd9003" d="M 515.21875 297.523438 C 514.101562 297.074219 512.535156 296.628906 510.636719 296.070312 C 509.074219 295.738281 507.84375 295.289062 507.0625 294.957031 C 506.277344 294.621094 505.71875 294.285156 505.160156 293.726562 C 504.714844 293.28125 504.601562 292.722656 504.601562 291.941406 C 504.601562 290.714844 505.050781 289.933594 505.832031 289.265625 C 506.726562 288.59375 508.066406 288.148438 509.742188 288.148438 C 510.972656 288.148438 512.089844 288.371094 512.984375 288.707031 C 513.878906 289.042969 514.882812 289.710938 515.890625 290.492188 C 516.449219 290.9375 517.007812 291.160156 517.566406 291.160156 C 518.011719 291.160156 518.570312 291.050781 519.132812 290.378906 C 519.464844 289.933594 519.691406 289.375 519.691406 288.816406 C 519.691406 288.035156 519.355469 287.253906 518.683594 286.699219 C 517.789062 285.691406 516.558594 284.910156 515.21875 284.464844 C 514.214844 284.019531 513.097656 283.796875 512.089844 283.574219 L 512.089844 281.675781 C 512.089844 280.78125 511.753906 280.226562 511.417969 279.890625 C 510.972656 279.445312 510.414062 279.21875 509.632812 279.21875 C 508.960938 279.21875 508.402344 279.445312 507.84375 280 C 507.394531 280.449219 507.171875 281.117188 507.171875 281.789062 L 507.171875 283.683594 C 505.832031 283.90625 504.601562 284.355469 503.484375 284.910156 C 502.144531 285.691406 501.027344 286.699219 500.242188 287.925781 C 499.460938 289.152344 499.015625 290.601562 499.015625 292.164062 C 499.015625 294.0625 499.574219 295.625 500.46875 296.851562 C 501.359375 297.96875 502.589844 298.75 503.929688 299.308594 C 505.160156 299.753906 506.726562 300.3125 508.738281 300.757812 C 510.191406 301.09375 511.308594 301.429688 512.089844 301.761719 C 512.761719 301.988281 513.429688 302.433594 513.878906 302.878906 C 514.214844 303.214844 514.4375 303.660156 514.4375 304.328125 C 514.4375 305.558594 514.101562 306.339844 513.207031 307.007812 C 512.3125 307.679688 510.972656 308.011719 509.183594 308.011719 C 506.835938 308.011719 504.601562 307.230469 502.253906 305.558594 C 501.585938 305.109375 501.136719 305 500.578125 305 C 499.90625 305 499.347656 305.335938 499.015625 305.78125 C 498.679688 306.226562 498.457031 306.785156 498.457031 307.34375 C 498.457031 308.234375 498.789062 308.90625 499.460938 309.464844 C 500.578125 310.46875 501.917969 311.25 503.484375 311.808594 C 504.714844 312.253906 505.941406 312.476562 507.171875 312.699219 L 507.171875 314.597656 C 507.171875 315.488281 507.507812 316.046875 507.84375 316.382812 C 508.289062 316.828125 508.847656 317.050781 509.632812 317.050781 C 510.300781 317.050781 510.972656 316.828125 511.417969 316.382812 C 511.753906 316.046875 512.089844 315.488281 512.089844 314.597656 L 512.089844 312.699219 C 514.214844 312.253906 516 311.472656 517.34375 310.132812 C 519.019531 308.570312 519.800781 306.671875 519.800781 304.328125 C 519.800781 302.542969 519.355469 301.09375 518.347656 299.976562 C 517.566406 298.863281 516.558594 298.082031 515.21875 297.523438 Z M 516 308.347656 C 514.773438 309.464844 513.097656 310.246094 510.972656 310.46875 L 509.964844 310.578125 L 509.964844 314.484375 C 509.964844 314.597656 509.964844 314.707031 509.964844 314.707031 L 509.855469 314.707031 C 509.742188 314.707031 509.742188 314.707031 509.742188 314.707031 L 509.742188 310.578125 L 508.738281 310.46875 C 507.285156 310.355469 505.941406 310.132812 504.601562 309.574219 C 503.371094 309.128906 502.253906 308.460938 501.359375 307.679688 C 501.25 307.566406 501.136719 307.453125 501.136719 307.230469 C 501.136719 307.121094 501.136719 307.121094 501.136719 307.007812 C 501.25 307.007812 501.359375 307.121094 501.472656 307.230469 C 504.15625 309.128906 506.949219 310.019531 509.632812 310.019531 C 511.867188 310.019531 513.65625 309.574219 514.882812 308.570312 C 516.226562 307.566406 517.007812 306.003906 517.007812 304.105469 C 517.007812 302.878906 516.558594 301.875 515.890625 301.09375 C 515.21875 300.425781 514.324219 299.867188 513.320312 299.53125 C 512.425781 299.195312 511.195312 298.863281 509.632812 298.527344 C 507.730469 298.082031 506.277344 297.632812 505.160156 297.1875 C 504.15625 296.742188 503.261719 296.183594 502.589844 295.289062 C 501.917969 294.507812 501.585938 293.394531 501.585938 292.054688 C 501.585938 290.9375 501.808594 289.933594 502.480469 288.929688 C 503.039062 288.035156 503.820312 287.253906 504.9375 286.699219 C 506.054688 286.140625 507.285156 285.691406 508.738281 285.582031 L 509.742188 285.46875 L 509.742188 281.5625 C 509.742188 281.453125 509.742188 281.339844 509.855469 281.339844 C 509.855469 281.339844 509.855469 281.339844 509.964844 281.339844 C 510.078125 281.339844 510.078125 281.339844 510.078125 281.339844 L 510.078125 285.46875 L 511.085938 285.582031 C 512.3125 285.691406 513.542969 286.027344 514.660156 286.472656 C 515.777344 286.921875 516.671875 287.480469 517.453125 288.261719 C 517.679688 288.484375 517.679688 288.59375 517.679688 288.707031 C 517.679688 288.816406 517.679688 288.816406 517.679688 288.929688 C 517.566406 288.929688 517.566406 288.816406 517.34375 288.816406 C 516.113281 287.8125 514.996094 287.144531 513.878906 286.699219 C 512.761719 286.25 511.308594 286.027344 509.855469 286.027344 C 507.730469 286.027344 505.941406 286.585938 504.601562 287.589844 C 503.261719 288.707031 502.480469 290.15625 502.480469 292.054688 C 502.480469 293.394531 502.925781 294.507812 503.707031 295.402344 C 504.378906 296.183594 505.382812 296.742188 506.390625 297.074219 C 507.285156 297.410156 508.625 297.855469 510.191406 298.191406 C 511.976562 298.636719 513.429688 299.085938 514.4375 299.53125 C 515.441406 299.867188 516.226562 300.535156 516.894531 301.316406 C 517.453125 301.988281 517.789062 302.992188 517.789062 304.21875 C 517.789062 305.890625 517.121094 307.230469 516 308.347656 Z M 516 308.347656 " fill-opacity="1" fill-rule="nonzero"/><path fill="#fd9003" d="M 444.027344 323.636719 C 443.355469 322.855469 442.574219 322.296875 441.570312 321.851562 C 440.453125 321.40625 439.109375 320.957031 437.320312 320.511719 C 435.757812 320.066406 434.417969 319.730469 433.523438 319.394531 C 432.515625 318.949219 431.621094 318.390625 430.839844 317.722656 C 430.058594 316.941406 429.609375 315.824219 429.609375 314.375 C 429.609375 312.476562 430.28125 311.027344 431.734375 309.910156 C 433.074219 308.90625 434.75 308.347656 436.988281 308.347656 C 438.550781 308.347656 439.890625 308.570312 441.011719 309.015625 C 442.128906 309.464844 443.355469 310.246094 444.476562 311.136719 C 444.585938 311.25 444.699219 311.25 444.808594 311.25 C 444.808594 311.25 444.808594 311.136719 444.808594 311.027344 C 444.808594 310.914062 444.808594 310.800781 444.585938 310.578125 C 443.804688 309.796875 442.910156 309.238281 441.792969 308.792969 C 440.675781 308.347656 439.445312 308.011719 438.214844 307.902344 L 437.210938 307.789062 L 437.210938 303.882812 C 437.210938 303.773438 437.210938 303.660156 437.210938 303.660156 L 437.097656 303.660156 C 436.988281 303.660156 436.988281 303.660156 436.988281 303.660156 C 436.988281 303.660156 436.875 303.773438 436.875 303.882812 L 436.875 307.789062 L 435.871094 307.902344 C 434.417969 308.011719 433.1875 308.460938 432.070312 309.015625 C 430.953125 309.574219 430.167969 310.355469 429.609375 311.25 C 429.050781 312.140625 428.714844 313.144531 428.714844 314.375 C 428.714844 315.824219 429.050781 316.828125 429.722656 317.609375 C 430.394531 318.503906 431.285156 319.0625 432.292969 319.507812 C 433.410156 319.953125 434.863281 320.398438 436.761719 320.847656 C 438.328125 321.179688 439.445312 321.515625 440.453125 321.851562 C 441.457031 322.183594 442.351562 322.742188 443.023438 323.414062 C 443.804688 324.195312 444.140625 325.199219 444.140625 326.425781 C 444.140625 328.324219 443.46875 329.773438 442.015625 330.890625 C 440.675781 331.894531 438.886719 332.339844 436.761719 332.339844 C 433.96875 332.339844 431.285156 331.335938 428.605469 329.550781 C 428.492188 329.4375 428.269531 329.4375 428.269531 329.328125 C 428.269531 329.328125 428.269531 329.4375 428.269531 329.550781 C 428.269531 329.773438 428.269531 329.886719 428.492188 329.996094 C 429.386719 330.777344 430.503906 331.449219 431.734375 331.894531 C 433.074219 332.339844 434.417969 332.675781 435.871094 332.789062 L 436.875 332.898438 L 436.875 337.027344 L 436.988281 337.027344 C 437.097656 337.027344 437.097656 337.027344 437.097656 337.027344 L 437.097656 332.898438 L 438.105469 332.789062 C 440.226562 332.5625 441.902344 331.78125 443.132812 330.667969 C 444.363281 329.550781 444.921875 328.210938 444.921875 326.539062 C 444.921875 325.308594 444.699219 324.304688 444.027344 323.636719 Z M 444.027344 323.636719 " fill-opacity="1" fill-rule="nonzero"/><path fill="#fd9003" d="M 442.464844 319.84375 C 441.34375 319.394531 439.78125 318.949219 437.878906 318.390625 C 436.316406 318.054688 435.085938 317.609375 434.304688 317.273438 C 433.523438 316.941406 432.964844 316.605469 432.40625 316.046875 C 431.957031 315.601562 431.847656 315.042969 431.847656 314.261719 C 431.847656 313.035156 432.292969 312.253906 433.074219 311.582031 C 433.96875 310.914062 435.308594 310.46875 436.988281 310.46875 C 438.214844 310.46875 439.332031 310.691406 440.226562 311.027344 C 441.121094 311.359375 442.128906 312.03125 443.132812 312.8125 C 443.691406 313.257812 444.25 313.480469 444.808594 313.480469 C 445.257812 313.480469 445.816406 313.371094 446.375 312.699219 C 446.710938 312.253906 446.933594 311.695312 446.933594 311.136719 C 446.933594 310.355469 446.597656 309.574219 445.925781 309.015625 C 445.035156 308.011719 443.804688 307.230469 442.464844 306.785156 C 441.457031 306.339844 440.339844 306.117188 439.332031 305.890625 L 439.332031 303.996094 C 439.332031 303.101562 439 302.542969 438.664062 302.210938 C 438.214844 301.761719 437.65625 301.539062 436.875 301.539062 C 436.203125 301.539062 435.644531 301.761719 435.085938 302.320312 C 434.640625 302.765625 434.417969 303.4375 434.417969 304.105469 L 434.417969 306.003906 C 433.074219 306.226562 431.847656 306.671875 430.726562 307.230469 C 429.386719 308.011719 428.269531 309.015625 427.488281 310.246094 C 426.703125 311.472656 426.257812 312.921875 426.257812 314.484375 C 426.257812 316.382812 426.816406 317.945312 427.710938 319.171875 C 428.605469 320.289062 429.835938 321.070312 431.175781 321.628906 C 432.40625 322.074219 433.96875 322.632812 435.980469 323.078125 C 437.433594 323.414062 438.550781 323.746094 439.332031 324.082031 C 440.003906 324.304688 440.675781 324.753906 441.121094 325.199219 C 441.457031 325.535156 441.679688 325.980469 441.679688 326.648438 C 441.679688 327.878906 441.34375 328.65625 440.453125 329.328125 C 439.558594 329.996094 438.214844 330.332031 436.429688 330.332031 C 434.082031 330.332031 431.847656 329.550781 429.5 327.878906 C 428.828125 327.429688 428.382812 327.320312 427.824219 327.320312 C 427.152344 327.320312 426.59375 327.652344 426.257812 328.101562 C 425.921875 328.546875 425.699219 329.105469 425.699219 329.664062 C 425.699219 330.554688 426.035156 331.226562 426.703125 331.78125 C 427.824219 332.789062 429.164062 333.570312 430.726562 334.125 C 431.957031 334.574219 433.1875 334.796875 434.417969 335.019531 L 434.417969 336.917969 C 434.417969 337.808594 434.75 338.367188 435.085938 338.703125 C 435.535156 339.148438 436.09375 339.371094 436.875 339.371094 C 437.546875 339.371094 438.214844 339.148438 438.664062 338.703125 C 439 338.367188 439.332031 337.808594 439.332031 336.917969 L 439.332031 335.019531 C 441.457031 334.574219 443.246094 333.792969 444.585938 332.453125 C 446.261719 330.890625 447.046875 328.992188 447.046875 326.648438 C 447.046875 324.863281 446.597656 323.414062 445.59375 322.296875 C 444.808594 321.179688 443.691406 320.398438 442.464844 319.84375 Z M 443.132812 330.777344 C 441.902344 331.894531 440.226562 332.675781 438.105469 332.898438 L 437.097656 333.011719 L 437.097656 336.917969 C 437.097656 337.027344 437.097656 337.140625 437.097656 337.140625 L 436.988281 337.140625 C 436.875 337.140625 436.875 337.140625 436.875 337.140625 L 436.875 333.011719 L 435.871094 332.898438 C 434.417969 332.789062 433.074219 332.5625 431.734375 332.007812 C 430.503906 331.558594 429.386719 330.890625 428.492188 330.109375 C 428.382812 329.996094 428.269531 329.886719 428.269531 329.664062 C 428.269531 329.550781 428.269531 329.550781 428.269531 329.4375 C 428.382812 329.4375 428.492188 329.550781 428.605469 329.664062 C 431.285156 331.558594 434.082031 332.453125 436.761719 332.453125 C 439 332.453125 440.785156 332.007812 442.015625 331 C 443.355469 329.996094 444.140625 328.433594 444.140625 326.539062 C 444.140625 325.308594 443.691406 324.304688 443.023438 323.523438 C 442.351562 322.855469 441.457031 322.296875 440.453125 321.960938 C 439.558594 321.628906 438.328125 321.292969 436.761719 320.957031 C 434.863281 320.511719 433.410156 320.066406 432.292969 319.617188 C 431.285156 319.171875 430.394531 318.613281 429.722656 317.722656 C 429.050781 316.941406 428.714844 315.9375 428.714844 314.484375 C 428.714844 313.371094 428.941406 312.363281 429.609375 311.359375 C 430.167969 310.46875 430.953125 309.6875 432.070312 309.128906 C 433.1875 308.570312 434.417969 308.125 435.871094 308.011719 L 436.875 307.902344 L 436.875 303.996094 C 436.875 303.882812 436.875 303.773438 436.988281 303.773438 C 436.988281 303.773438 436.988281 303.773438 437.097656 303.773438 C 437.210938 303.773438 437.210938 303.773438 437.210938 303.773438 L 437.210938 307.902344 L 438.214844 308.011719 C 439.445312 308.125 440.675781 308.460938 441.792969 308.90625 C 442.910156 309.351562 443.804688 309.910156 444.585938 310.691406 C 444.808594 310.914062 444.808594 311.027344 444.808594 311.136719 C 444.808594 311.25 444.808594 311.25 444.808594 311.359375 C 444.699219 311.359375 444.699219 311.25 444.476562 311.25 C 443.246094 310.246094 442.128906 309.574219 441.011719 309.128906 C 439.890625 308.683594 438.441406 308.460938 436.988281 308.460938 C 434.863281 308.460938 433.074219 309.015625 431.734375 310.019531 C 430.394531 311.136719 429.609375 312.589844 429.609375 314.484375 C 429.609375 315.824219 430.058594 316.941406 430.839844 317.832031 C 431.511719 318.613281 432.515625 319.171875 433.523438 319.507812 C 434.417969 319.84375 435.757812 320.289062 437.320312 320.625 C 439.109375 321.070312 440.5625 321.515625 441.570312 321.960938 C 442.574219 322.296875 443.355469 322.964844 444.027344 323.746094 C 444.585938 324.417969 444.921875 325.421875 444.921875 326.648438 C 444.921875 328.210938 444.363281 329.550781 443.132812 330.777344 Z M 443.132812 330.777344 " fill-opacity="1" fill-rule="nonzero"/><path fill="#ffc34e" d="M 553.664062 334.574219 C 553.664062 331.558594 556.125 329.214844 559.03125 329.214844 L 613.234375 329.214844 C 616.25 329.214844 618.597656 331.671875 618.597656 334.574219 C 618.597656 337.585938 616.140625 339.929688 613.234375 339.929688 L 559.03125 339.929688 C 556.125 339.929688 553.664062 337.585938 553.664062 334.574219 Z M 553.664062 334.574219 " fill-opacity="1" fill-rule="nonzero"/><path fill="#ffc34e" d="M 554.113281 355.886719 C 554.113281 352.875 556.570312 350.53125 559.476562 350.53125 L 613.679688 350.53125 C 616.699219 350.53125 619.046875 352.988281 619.046875 355.886719 C 619.046875 358.902344 616.585938 361.246094 613.679688 361.246094 L 559.476562 361.246094 C 556.570312 361.246094 554.113281 358.902344 554.113281 355.886719 Z M 554.113281 355.886719 " fill-opacity="1" fill-rule="nonzero"/><path fill="#ffc34e" d="M 554.113281 376.644531 C 554.113281 373.632812 556.570312 371.289062 559.476562 371.289062 L 613.679688 371.289062 C 616.699219 371.289062 619.046875 373.742188 619.046875 376.644531 C 619.046875 379.660156 616.585938 382 613.679688 382 L 559.476562 382 C 556.570312 382.113281 554.113281 379.660156 554.113281 376.644531 Z M 554.113281 376.644531 " fill-opacity="1" fill-rule="nonzero"/><g clip-path="url(#b2e76db4a9)"><path fill="#ffc34e" d="M 554.113281 397.515625 C 554.113281 394.5 556.570312 392.15625 559.476562 392.15625 L 613.679688 392.15625 C 616.699219 392.15625 619.046875 394.613281 619.046875 397.515625 C 619.046875 400.527344 616.585938 402.871094 613.679688 402.871094 L 559.476562 402.871094 C 556.570312 402.871094 554.113281 400.414062 554.113281 397.515625 Z M 554.113281 397.515625 " fill-opacity="1" fill-rule="nonzero"/></g><path fill="#ffc34e" d="M 479.34375 355.886719 C 479.34375 352.875 481.804688 350.53125 484.707031 350.53125 L 538.914062 350.53125 C 541.929688 350.53125 544.277344 352.988281 544.277344 355.886719 C 544.277344 358.902344 541.820312 361.246094 538.914062 361.246094 L 484.707031 361.246094 C 481.804688 361.246094 479.34375 358.902344 479.34375 355.886719 Z M 479.34375 355.886719 " fill-opacity="1" fill-rule="nonzero"/><path fill="#ffc34e" d="M 479.34375 376.644531 C 479.34375 373.632812 481.804688 371.289062 484.707031 371.289062 L 538.914062 371.289062 C 541.929688 371.289062 544.277344 373.742188 544.277344 376.644531 C 544.277344 379.660156 541.820312 382 538.914062 382 L 484.707031 382 C 481.804688 382.113281 479.34375 379.660156 479.34375 376.644531 Z M 479.34375 376.644531 " fill-opacity="1" fill-rule="nonzero"/><g clip-path="url(#02c72bf254)"><path fill="#ffc34e" d="M 479.34375 397.515625 C 479.34375 394.5 481.804688 392.15625 484.707031 392.15625 L 538.914062 392.15625 C 541.929688 392.15625 544.277344 394.613281 544.277344 397.515625 C 544.277344 400.527344 541.820312 402.871094 538.914062 402.871094 L 484.707031 402.871094 C 481.804688 402.871094 479.34375 400.414062 479.34375 397.515625 Z M 479.34375 397.515625 " fill-opacity="1" fill-rule="nonzero"/></g><path fill="#ffc34e" d="M 404.574219 376.644531 C 404.574219 373.632812 407.035156 371.289062 409.941406 371.289062 L 464.144531 371.289062 C 467.164062 371.289062 469.507812 373.742188 469.507812 376.644531 C 469.507812 379.660156 467.050781 382 464.144531 382 L 409.941406 382 C 407.035156 382.113281 404.574219 379.660156 404.574219 376.644531 Z M 404.574219 376.644531 " fill-opacity="1" fill-rule="nonzero"/><g clip-path="url(#9d6b24d181)"><path fill="#ffc34e" d="M 404.574219 397.515625 C 404.574219 394.5 407.035156 392.15625 409.941406 392.15625 L 464.144531 392.15625 C 467.164062 392.15625 469.507812 394.613281 469.507812 397.515625 C 469.507812 400.527344 467.050781 402.871094 464.144531 402.871094 L 409.941406 402.871094 C 407.035156 402.871094 404.574219 400.414062 404.574219 397.515625 Z M 404.574219 397.515625 " fill-opacity="1" fill-rule="nonzero"/></g><path fill="#ffc34e" d="M 583.730469 253.21875 C 570.09375 253.21875 559.03125 264.265625 559.03125 277.882812 C 559.03125 291.496094 570.09375 302.542969 583.730469 302.542969 C 597.363281 302.542969 608.429688 291.496094 608.429688 277.882812 C 608.429688 264.265625 597.363281 253.21875 583.730469 253.21875 Z M 591.777344 289.597656 C 590.433594 290.9375 588.644531 291.71875 586.523438 292.164062 L 586.523438 294.0625 C 586.523438 294.957031 586.1875 295.515625 585.851562 295.847656 C 585.40625 296.292969 584.847656 296.519531 584.0625 296.519531 C 583.394531 296.519531 582.722656 296.292969 582.277344 295.847656 C 581.941406 295.515625 581.605469 294.957031 581.605469 294.0625 L 581.605469 292.164062 C 580.375 292.054688 579.148438 291.71875 577.917969 291.273438 C 576.351562 290.714844 575.011719 289.933594 573.894531 288.929688 C 573.222656 288.371094 572.886719 287.703125 572.886719 286.808594 C 572.886719 286.25 573.113281 285.691406 573.445312 285.246094 C 573.894531 284.6875 574.453125 284.464844 575.011719 284.464844 C 575.570312 284.464844 576.128906 284.6875 576.6875 285.023438 C 579.035156 286.585938 581.382812 287.480469 583.617188 287.480469 C 585.292969 287.480469 586.632812 287.144531 587.640625 286.472656 C 588.421875 285.804688 588.871094 285.023438 588.871094 283.796875 C 588.871094 283.238281 588.757812 282.679688 588.3125 282.34375 C 587.863281 281.898438 587.304688 281.5625 586.523438 281.230469 C 585.742188 280.894531 584.511719 280.558594 583.171875 280.226562 C 581.269531 279.777344 579.59375 279.21875 578.363281 278.773438 C 577.023438 278.214844 575.90625 277.433594 574.898438 276.320312 C 573.894531 275.089844 573.445312 273.527344 573.445312 271.632812 C 573.445312 270.070312 573.894531 268.617188 574.675781 267.390625 C 575.457031 266.164062 576.574219 265.160156 577.917969 264.378906 C 579.035156 263.820312 580.265625 263.375 581.605469 263.148438 L 581.605469 261.253906 C 581.605469 260.582031 581.828125 259.914062 582.277344 259.46875 C 582.722656 259.019531 583.28125 258.6875 584.0625 258.6875 C 584.734375 258.6875 585.40625 258.910156 585.851562 259.355469 C 586.1875 259.691406 586.523438 260.25 586.523438 261.140625 L 586.523438 263.039062 C 587.640625 263.261719 588.644531 263.484375 589.652344 263.929688 C 590.992188 264.488281 592.109375 265.269531 593.117188 266.164062 C 593.789062 266.722656 594.121094 267.390625 594.121094 268.285156 C 594.121094 268.84375 593.898438 269.398438 593.5625 269.847656 C 593.003906 270.515625 592.445312 270.628906 592 270.628906 C 591.441406 270.628906 590.882812 270.402344 590.324219 269.957031 C 589.316406 269.175781 588.3125 268.507812 587.417969 268.171875 C 586.523438 267.835938 585.40625 267.613281 584.175781 267.613281 C 582.5 267.613281 581.269531 267.949219 580.265625 268.730469 C 579.371094 269.398438 579.035156 270.292969 579.035156 271.410156 C 579.035156 272.191406 579.257812 272.746094 579.59375 273.195312 C 580.039062 273.753906 580.710938 274.085938 581.492188 274.421875 C 582.386719 274.757812 583.617188 275.089844 585.070312 275.539062 C 586.96875 275.984375 588.535156 276.429688 589.652344 276.988281 C 590.882812 277.546875 592 278.328125 592.894531 279.332031 C 593.789062 280.449219 594.347656 281.898438 594.347656 283.683594 C 594.234375 286.140625 593.339844 288.035156 591.777344 289.597656 Z M 591.777344 289.597656 " fill-opacity="1" fill-rule="nonzero"/><path fill="#ffc34e" d="M 509.519531 273.527344 C 495.882812 273.527344 484.820312 284.578125 484.820312 298.191406 C 484.820312 311.808594 495.882812 322.855469 509.519531 322.855469 C 523.15625 322.855469 534.21875 311.808594 534.21875 298.191406 C 534.21875 284.578125 523.15625 273.527344 509.519531 273.527344 Z M 517.453125 310.019531 C 516.113281 311.359375 514.324219 312.140625 512.203125 312.589844 L 512.203125 314.484375 C 512.203125 315.378906 511.867188 315.9375 511.53125 316.269531 C 511.085938 316.71875 510.527344 316.941406 509.742188 316.941406 C 509.074219 316.941406 508.402344 316.71875 507.953125 316.269531 C 507.621094 315.9375 507.285156 315.378906 507.285156 314.484375 L 507.285156 312.589844 C 506.054688 312.476562 504.824219 312.140625 503.597656 311.695312 C 502.03125 311.136719 500.691406 310.355469 499.574219 309.351562 C 498.902344 308.792969 498.566406 308.125 498.566406 307.230469 C 498.566406 306.671875 498.789062 306.117188 499.125 305.667969 C 499.574219 305.109375 500.132812 304.886719 500.691406 304.886719 C 501.25 304.886719 501.808594 305.109375 502.367188 305.445312 C 504.714844 307.007812 507.0625 307.902344 509.296875 307.902344 C 510.972656 307.902344 512.3125 307.566406 513.320312 306.898438 C 514.101562 306.226562 514.546875 305.445312 514.546875 304.21875 C 514.546875 303.660156 514.4375 303.101562 513.988281 302.765625 C 513.542969 302.320312 512.984375 301.988281 512.203125 301.652344 C 511.417969 301.316406 510.191406 300.980469 508.847656 300.648438 C 506.949219 300.199219 505.273438 299.644531 504.042969 299.195312 C 502.703125 298.636719 501.585938 297.855469 500.578125 296.742188 C 499.574219 295.515625 499.125 293.953125 499.125 292.054688 C 499.125 290.492188 499.574219 289.042969 500.355469 287.8125 C 501.136719 286.585938 502.253906 285.582031 503.597656 284.800781 C 504.714844 284.242188 505.941406 283.796875 507.285156 283.574219 L 507.285156 281.675781 C 507.285156 281.007812 507.507812 280.335938 507.953125 279.890625 C 508.402344 279.445312 508.960938 279.109375 509.742188 279.109375 C 510.414062 279.109375 511.085938 279.332031 511.53125 279.777344 C 511.867188 280.113281 512.203125 280.671875 512.203125 281.5625 L 512.203125 283.460938 C 513.320312 283.683594 514.324219 283.90625 515.332031 284.355469 C 516.671875 284.910156 517.789062 285.691406 518.796875 286.585938 C 519.464844 287.144531 519.800781 287.8125 519.800781 288.707031 C 519.800781 289.265625 519.578125 289.820312 519.242188 290.269531 C 518.683594 290.9375 518.125 291.050781 517.679688 291.050781 C 517.121094 291.050781 516.558594 290.828125 516 290.378906 C 514.996094 289.597656 513.988281 288.929688 513.097656 288.59375 C 512.203125 288.261719 511.085938 288.035156 509.855469 288.035156 C 508.179688 288.035156 506.949219 288.371094 505.941406 289.152344 C 505.050781 289.820312 504.714844 290.714844 504.714844 291.832031 C 504.714844 292.613281 504.9375 293.171875 505.273438 293.617188 C 505.71875 294.175781 506.390625 294.507812 507.171875 294.84375 C 508.066406 295.179688 509.296875 295.515625 510.75 295.960938 C 512.648438 296.40625 514.214844 296.851562 515.332031 297.410156 C 516.558594 297.96875 517.679688 298.75 518.570312 299.753906 C 519.464844 300.871094 520.023438 302.320312 520.023438 304.105469 C 519.914062 306.5625 519.132812 308.460938 517.453125 310.019531 Z M 517.453125 310.019531 " fill-opacity="1" fill-rule="nonzero"/><path fill="#ffc34e" d="M 436.761719 295.847656 C 423.128906 295.847656 412.0625 306.898438 412.0625 320.511719 C 412.0625 334.125 423.128906 345.175781 436.761719 345.175781 C 450.398438 345.175781 461.460938 334.125 461.460938 320.511719 C 461.351562 306.898438 450.398438 295.847656 436.761719 295.847656 Z M 444.699219 332.339844 C 443.355469 333.679688 441.570312 334.460938 439.445312 334.90625 L 439.445312 336.804688 C 439.445312 337.699219 439.109375 338.253906 438.773438 338.589844 C 438.328125 339.035156 437.769531 339.261719 436.988281 339.261719 C 436.316406 339.261719 435.644531 339.035156 435.199219 338.589844 C 434.863281 338.253906 434.527344 337.699219 434.527344 336.804688 L 434.527344 334.90625 C 433.296875 334.796875 432.070312 334.460938 430.839844 334.015625 C 429.273438 333.457031 427.933594 332.675781 426.816406 331.671875 C 426.144531 331.113281 425.8125 330.445312 425.8125 329.550781 C 425.8125 328.992188 426.035156 328.433594 426.371094 327.988281 C 426.816406 327.429688 427.375 327.207031 427.933594 327.207031 C 428.492188 327.207031 429.050781 327.429688 429.609375 327.765625 C 431.957031 329.328125 434.304688 330.21875 436.539062 330.21875 C 438.214844 330.21875 439.558594 329.886719 440.5625 329.214844 C 441.34375 328.546875 441.792969 327.765625 441.792969 326.539062 C 441.792969 325.980469 441.679688 325.421875 441.234375 325.085938 C 440.785156 324.640625 440.226562 324.304688 439.445312 323.972656 C 438.664062 323.636719 437.433594 323.300781 436.09375 322.964844 C 434.191406 322.519531 432.515625 321.960938 431.285156 321.515625 C 429.945312 320.957031 428.828125 320.175781 427.824219 319.0625 C 426.816406 317.832031 426.371094 316.269531 426.371094 314.375 C 426.371094 312.8125 426.816406 311.359375 427.597656 310.132812 C 428.382812 308.90625 429.5 307.902344 430.839844 307.121094 C 431.957031 306.5625 433.1875 306.117188 434.527344 305.890625 L 434.527344 303.996094 C 434.527344 303.324219 434.75 302.65625 435.199219 302.210938 C 435.644531 301.761719 436.203125 301.429688 436.988281 301.429688 C 437.65625 301.429688 438.328125 301.652344 438.773438 302.097656 C 439.109375 302.433594 439.445312 302.992188 439.445312 303.882812 L 439.445312 305.78125 C 440.5625 306.003906 441.570312 306.226562 442.574219 306.671875 C 443.914062 307.230469 445.035156 308.011719 446.039062 308.90625 C 446.710938 309.464844 447.046875 310.132812 447.046875 311.027344 C 447.046875 311.582031 446.820312 312.140625 446.488281 312.589844 C 445.925781 313.257812 445.367188 313.371094 444.921875 313.371094 C 444.363281 313.371094 443.804688 313.144531 443.246094 312.699219 C 442.238281 311.917969 441.234375 311.25 440.339844 310.914062 C 439.445312 310.578125 438.328125 310.355469 437.097656 310.355469 C 435.421875 310.355469 434.191406 310.691406 433.1875 311.472656 C 432.292969 312.140625 431.957031 313.035156 431.957031 314.152344 C 431.957031 314.933594 432.179688 315.488281 432.515625 315.9375 C 432.964844 316.492188 433.632812 316.828125 434.417969 317.164062 C 435.308594 317.5 436.539062 317.832031 437.992188 318.28125 C 439.890625 318.726562 441.457031 319.171875 442.574219 319.730469 C 443.804688 320.289062 444.921875 321.070312 445.816406 322.074219 C 446.710938 323.191406 447.269531 324.640625 447.269531 326.425781 C 447.15625 328.882812 446.261719 330.777344 444.699219 332.339844 Z M 444.699219 332.339844 " fill-opacity="1" fill-rule="nonzero"/><path fill="#95d699" d="M 471.410156 255.671875 C 469.285156 253.328125 469.507812 249.648438 471.96875 247.527344 L 530.417969 196.082031 C 532.765625 193.960938 536.453125 194.183594 538.578125 196.636719 C 540.699219 198.980469 540.476562 202.664062 538.019531 204.785156 L 479.566406 256.230469 C 477.21875 258.351562 473.53125 258.128906 471.410156 255.671875 Z M 471.410156 255.671875 " fill-opacity="1" fill-rule="nonzero"/><path fill="#95d699" d="M 479.902344 255.671875 C 482.027344 253.328125 481.804688 249.648438 479.34375 247.527344 L 446.039062 218.175781 C 443.691406 216.054688 440.003906 216.28125 437.878906 218.734375 C 435.757812 221.078125 435.980469 224.761719 438.441406 226.882812 L 471.855469 256.34375 C 474.203125 258.351562 477.78125 258.128906 479.902344 255.671875 Z M 479.902344 255.671875 " fill-opacity="1" fill-rule="nonzero"/><path fill="#95d699" d="M 404.015625 255.226562 C 401.894531 252.882812 402.117188 249.199219 404.574219 247.082031 L 437.992188 217.617188 C 440.339844 215.5 444.027344 215.722656 446.152344 218.175781 C 448.273438 220.519531 448.050781 224.203125 445.59375 226.324219 L 412.175781 255.785156 C 409.828125 257.792969 406.140625 257.570312 404.015625 255.226562 Z M 404.015625 255.226562 " fill-opacity="1" fill-rule="nonzero"/><path fill="#95d699" d="M 560.929688 229.558594 C 558.804688 227.214844 559.03125 223.53125 561.488281 221.414062 L 594.792969 191.949219 C 597.140625 189.832031 600.828125 190.054688 602.953125 192.507812 C 605.074219 194.851562 604.851562 198.535156 602.394531 200.65625 L 569.089844 230.003906 C 566.628906 232.125 562.941406 231.902344 560.929688 229.558594 Z M 560.929688 229.558594 " fill-opacity="1" fill-rule="nonzero"/><path fill="#95d699" d="M 568.863281 230.003906 C 570.988281 227.664062 570.988281 224.203125 568.753906 222.304688 L 538.355469 196.191406 C 536.117188 194.292969 532.652344 194.742188 530.53125 197.085938 C 528.40625 199.429688 528.40625 202.886719 530.640625 204.785156 L 561.152344 230.898438 C 563.277344 232.796875 566.742188 232.347656 568.863281 230.003906 Z M 568.863281 230.003906 " fill-opacity="1" fill-rule="nonzero"/><path fill="#95d699" d="M 615.023438 174.09375 L 585.628906 181.796875 C 581.941406 182.800781 580.597656 187.375 583.28125 190.164062 L 603.398438 211.367188 C 606.082031 214.160156 610.664062 213.042969 611.890625 209.472656 L 621.167969 180.566406 C 622.285156 176.664062 618.820312 172.980469 615.023438 174.09375 Z M 615.023438 174.09375 " fill-opacity="1" fill-rule="nonzero"/></svg>