<svg width="154" height="38" viewBox="0 0 154 38" fill="none" xmlns="http://www.w3.org/2000/svg">
<path d="M0.0620712 36.7342C0.17292 36.9735 0.412871 37.1256 0.674448 37.1256H5.24291C5.61736 37.1256 5.91882 36.8241 5.91882 36.4497C5.91882 33.9711 7.96412 31.0904 10.6042 31.0904C13.2423 31.0904 15.2889 33.9711 15.2889 36.4497C15.2889 36.8241 15.5911 37.1256 15.9648 37.1256H20.5326C20.7976 37.1256 21.0348 36.9721 21.1457 36.7342C21.2565 36.4949 21.2173 36.2131 21.047 36.0137C21.026 35.9887 18.9158 33.4763 16.7651 28.8193C16.609 28.48 16.2082 28.332 15.8682 28.4902C15.5289 28.6456 15.3802 29.0485 15.5377 29.3864C16.9469 32.4381 18.3238 34.5815 19.1713 35.7738H16.6022C16.2717 32.8004 13.8148 29.7386 10.6042 29.7386C7.39365 29.7386 4.93671 32.7971 4.60619 35.7738H2.03707C2.88466 34.5794 4.26081 32.4361 5.67076 29.3878C5.82554 29.0485 5.67954 28.6456 5.34091 28.4902C4.99958 28.3347 4.60011 28.4814 4.4433 28.8193C2.29189 33.4763 0.181709 35.9867 0.161432 36.0137C-0.00957287 36.2131 -0.0481018 36.4949 0.0620712 36.7342Z" fill="#FED23F"/>
<path d="M9.36933 4.8172C9.24226 4.94427 9.17128 5.11798 9.17263 5.29777C9.19966 9.66346 8.74884 13.9528 7.83366 18.0434C7.75188 18.4077 7.98168 18.7693 8.346 18.8497C8.39534 18.8626 8.44468 18.8659 8.4947 18.8659C8.80426 18.8659 9.08342 18.653 9.15371 18.3381C10.0446 14.3583 10.5062 10.2008 10.5271 5.96759H10.6853C10.7049 10.2042 11.1679 14.3617 12.0581 18.3381C12.1392 18.7017 12.5028 18.9328 12.8644 18.8497C13.2288 18.7693 13.4579 18.4077 13.3761 18.0434C12.4609 13.9534 12.0101 9.66481 12.0378 5.29777C12.0392 5.11798 11.9675 4.94562 11.8411 4.8172C11.714 4.69013 11.5424 4.6178 11.3619 4.6178H9.8499C9.66875 4.61847 9.49572 4.69013 9.36933 4.8172Z" fill="#FED23F"/>
<path d="M11.2794 2.22508V0.675908C11.2794 0.302131 10.9773 0 10.6035 0C10.2297 0 9.92761 0.302131 9.92761 0.675908V2.22508C9.92761 2.59886 10.2297 2.90099 10.6035 2.90099C10.9773 2.90099 11.2794 2.59886 11.2794 2.22508Z" fill="#FED23F"/>
<path d="M3.19837 25.3161C2.82459 25.3161 2.52246 25.6169 2.52246 25.992C2.52246 26.3658 2.82459 26.6679 3.19837 26.6679H18.0089C18.3826 26.6679 18.6848 26.3658 18.6848 25.992C18.6848 25.6169 18.3826 25.3161 18.0089 25.3161H15.5769C15.1099 24.1022 14.6861 22.8484 14.3035 21.5723H15.1031C15.4769 21.5723 15.779 21.2701 15.779 20.8964C15.779 20.5212 15.4769 20.2205 15.1031 20.2205H6.10408C5.73031 20.2205 5.42818 20.5212 5.42818 20.8964C5.42818 21.2701 5.73031 21.5723 6.10408 21.5723H6.90099C6.52316 22.8396 6.09869 24.0927 5.62826 25.3161H3.19837ZM8.31634 21.5723H12.8909C13.2606 22.847 13.683 24.0948 14.1406 25.3161H11.2822V23.767C11.2822 23.3925 10.9801 23.091 10.6063 23.091C10.2325 23.091 9.9304 23.3925 9.9304 23.767V25.3161H7.07065C7.52688 24.088 7.94999 22.8382 8.31634 21.5723Z" fill="#FED23F"/>
<path d="M32.2962 8.45767C34.1664 8.45767 35.0845 9.49479 35.0845 11.399V12.9462C35.0845 14.8504 34.1664 15.8875 32.2962 15.8875H31.4121V20.3591H29.5419V8.45767H32.2962ZM32.2962 10.1579H31.4121V14.1873H32.2962C32.8913 14.1873 33.2143 13.9153 33.2143 13.0652V11.28C33.2143 10.4299 32.8913 10.1579 32.2962 10.1579ZM39.8791 8.45767L41.7833 20.3591H39.8961L39.5731 18.1998H37.2778L36.9547 20.3591H35.2375L37.1418 8.45767H39.8791ZM38.3999 10.5659L37.5158 16.5846H39.318L38.4339 10.5659H38.3999ZM48.4651 20.3591H46.5609C46.4589 20.053 46.3909 19.866 46.3909 18.8969V17.0267C46.3909 15.9216 46.0168 15.5135 45.1667 15.5135H44.5206V20.3591H42.6504V8.45767H45.4728C47.411 8.45767 48.2441 9.35878 48.2441 11.195V12.1301C48.2441 13.3542 47.853 14.1363 47.0199 14.5274V14.5614C47.955 14.9524 48.2611 15.8365 48.2611 17.0777V18.9139C48.2611 19.492 48.2781 19.917 48.4651 20.3591ZM45.4217 10.1579H44.5206V13.8133H45.2517C45.9488 13.8133 46.3739 13.5073 46.3739 12.5552V11.382C46.3739 10.5319 46.0848 10.1579 45.4217 10.1579ZM49.4852 20.3591V8.45767H51.3554V20.3591H49.4852ZM52.4776 11.314C52.4776 9.40978 53.4127 8.32166 55.2319 8.32166C57.0511 8.32166 57.9862 9.40978 57.9862 11.314V11.6881H56.218V11.195C56.218 10.3449 55.878 10.0219 55.2829 10.0219C54.6878 10.0219 54.3478 10.3449 54.3478 11.195C54.3478 12.0621 54.7218 12.7082 55.946 13.7793C57.5102 15.1565 58.0032 16.1426 58.0032 17.5027C58.0032 19.407 57.0511 20.4951 55.2149 20.4951C53.3787 20.4951 52.4266 19.407 52.4266 17.5027V16.7717H54.1948V17.6218C54.1948 18.4719 54.5688 18.7779 55.1639 18.7779C55.759 18.7779 56.133 18.4719 56.133 17.6218C56.133 16.7546 55.759 16.1086 54.5348 15.0374C52.9706 13.6603 52.4776 12.6742 52.4776 11.314ZM61.7097 20.3591V8.45767H63.5799V20.3591H61.7097ZM68.9355 20.3591L66.6403 11.7391H66.6062V20.3591H64.923V8.45767H67.2693L69.1566 15.5815H69.1906V8.45767H70.8568V20.3591H68.9355ZM73.5941 8.45767L75.0052 18.1658H75.0392L76.4504 8.45767H78.1676L76.3314 20.3591H73.5431L71.7069 8.45767H73.5941ZM80.9049 10.1579V13.4733H83.4722V15.1735H80.9049V18.6589H84.1353V20.3591H79.0347V8.45767H84.1353V10.1579H80.9049ZM85.0534 11.314C85.0534 9.40978 85.9885 8.32166 87.8077 8.32166C89.627 8.32166 90.5621 9.40978 90.5621 11.314V11.6881H88.7939V11.195C88.7939 10.3449 88.4538 10.0219 87.8588 10.0219C87.2637 10.0219 86.9236 10.3449 86.9236 11.195C86.9236 12.0621 87.2977 12.7082 88.5218 13.7793C90.086 15.1565 90.5791 16.1426 90.5791 17.5027C90.5791 19.407 89.627 20.4951 87.7907 20.4951C85.9545 20.4951 85.0024 19.407 85.0024 17.5027V16.7717H86.7706V17.6218C86.7706 18.4719 87.1447 18.7779 87.7397 18.7779C88.3348 18.7779 88.7089 18.4719 88.7089 17.6218C88.7089 16.7546 88.3348 16.1086 87.1107 15.0374C85.5465 13.6603 85.0534 12.6742 85.0534 11.314ZM91.1061 10.1579V8.45767H96.8868V10.1579H94.9316V20.3591H93.0614V10.1579H91.1061ZM97.7029 20.3591V8.45767H99.5731V20.3591H97.7029ZM100.695 11.314C100.695 9.40978 101.63 8.32166 103.45 8.32166C105.269 8.32166 106.204 9.40978 106.204 11.314V11.6881H104.436V11.195C104.436 10.3449 104.096 10.0219 103.501 10.0219C102.906 10.0219 102.565 10.3449 102.565 11.195C102.565 12.0621 102.94 12.7082 104.164 13.7793C105.728 15.1565 106.221 16.1426 106.221 17.5027C106.221 19.407 105.269 20.4951 103.433 20.4951C101.596 20.4951 100.644 19.407 100.644 17.5027V16.7717H102.412V17.6218C102.412 18.4719 102.787 18.7779 103.382 18.7779C103.977 18.7779 104.351 18.4719 104.351 17.6218C104.351 16.7546 103.977 16.1086 102.753 15.0374C101.188 13.6603 100.695 12.6742 100.695 11.314ZM107.054 11.314C107.054 9.40978 107.989 8.32166 109.808 8.32166C111.628 8.32166 112.563 9.40978 112.563 11.314V11.6881H110.794V11.195C110.794 10.3449 110.454 10.0219 109.859 10.0219C109.264 10.0219 108.924 10.3449 108.924 11.195C108.924 12.0621 109.298 12.7082 110.522 13.7793C112.087 15.1565 112.58 16.1426 112.58 17.5027C112.58 19.407 111.628 20.4951 109.791 20.4951C107.955 20.4951 107.003 19.407 107.003 17.5027V16.7717H108.771V17.6218C108.771 18.4719 109.145 18.7779 109.74 18.7779C110.335 18.7779 110.709 18.4719 110.709 17.6218C110.709 16.7546 110.335 16.1086 109.111 15.0374C107.547 13.6603 107.054 12.6742 107.054 11.314ZM115.521 10.1579V13.4733H118.088V15.1735H115.521V18.6589H118.751V20.3591H113.651V8.45767H118.751V10.1579H115.521ZM122.492 8.45767L123.852 16.9077H123.886L125.144 8.45767H127.745V20.3591H125.977V11.8241H125.943L124.685 20.3591H122.917L121.557 11.9431H121.523V20.3591H119.891V8.45767H122.492ZM130.976 10.1579V13.4733H133.543V15.1735H130.976V18.6589H134.206V20.3591H129.106V8.45767H134.206V10.1579H130.976ZM139.358 20.3591L137.063 11.7391H137.029V20.3591H135.345V8.45767H137.692L139.579 15.5815H139.613V8.45767H141.279V20.3591H139.358ZM142.078 10.1579V8.45767H147.859V10.1579H145.904V20.3591H144.033V10.1579H142.078ZM148.437 11.314C148.437 9.40978 149.372 8.32166 151.191 8.32166C153.01 8.32166 153.946 9.40978 153.946 11.314V11.6881H152.177V11.195C152.177 10.3449 151.837 10.0219 151.242 10.0219C150.647 10.0219 150.307 10.3449 150.307 11.195C150.307 12.0621 150.681 12.7082 151.905 13.7793C153.47 15.1565 153.963 16.1426 153.963 17.5027C153.963 19.407 153.01 20.4951 151.174 20.4951C149.338 20.4951 148.386 19.407 148.386 17.5027V16.7717H150.154V17.6218C150.154 18.4719 150.528 18.7779 151.123 18.7779C151.718 18.7779 152.092 18.4719 152.092 17.6218C152.092 16.7546 151.718 16.1086 150.494 15.0374C148.93 13.6603 148.437 12.6742 148.437 11.314Z" fill="#FED23F"/>
<path d="M29.5419 25.7846V25.2863H31.2361V25.7846H30.6631V28.7745H30.1149V25.7846H29.5419ZM34.2279 26.0886V27.9722C34.2279 28.2214 34.3376 28.316 34.512 28.316C34.6864 28.316 34.796 28.2214 34.796 27.9722V26.0886C34.796 25.8394 34.6864 25.7448 34.512 25.7448C34.3376 25.7448 34.2279 25.8394 34.2279 26.0886ZM33.6798 27.9373V26.1235C33.6798 25.5654 33.9738 25.2465 34.512 25.2465C35.0501 25.2465 35.3441 25.5654 35.3441 26.1235V27.9373C35.3441 28.4954 35.0501 28.8143 34.512 28.8143C33.9738 28.8143 33.6798 28.4954 33.6798 27.9373ZM39.1183 28.7745L38.4456 26.2481H38.4356V28.7745H37.9423V25.2863H38.63L39.1831 27.3742H39.1931V25.2863H39.6814V28.7745H39.1183ZM45.2764 26.1235C45.2764 25.5654 45.5504 25.2465 46.0836 25.2465C46.6168 25.2465 46.8909 25.5654 46.8909 26.1235V26.2331H46.3726V26.0886C46.3726 25.8394 46.273 25.7448 46.0986 25.7448C45.9242 25.7448 45.8245 25.8394 45.8245 26.0886C45.8245 26.3427 45.9341 26.5321 46.2929 26.846C46.7514 27.2497 46.8959 27.5387 46.8959 27.9373C46.8959 28.4954 46.6168 28.8143 46.0786 28.8143C45.5405 28.8143 45.2614 28.4954 45.2614 27.9373V27.723H45.7797V27.9722C45.7797 28.2214 45.8893 28.3111 46.0637 28.3111C46.2381 28.3111 46.3477 28.2214 46.3477 27.9722C46.3477 27.7181 46.2381 27.5287 45.8793 27.2148C45.4209 26.8111 45.2764 26.5221 45.2764 26.1235ZM49.4342 25.2863H49.9824V27.9772C49.9824 28.2263 50.092 28.316 50.2664 28.316C50.4408 28.316 50.5504 28.2263 50.5504 27.9772V25.2863H51.0687V27.9423C51.0687 28.5004 50.7896 28.8193 50.2515 28.8193C49.7133 28.8193 49.4342 28.5004 49.4342 27.9423V25.2863ZM54.7631 27.4739H55.2814V27.9373C55.2814 28.4954 55.0023 28.8143 54.4641 28.8143C53.926 28.8143 53.6469 28.4954 53.6469 27.9373V26.1235C53.6469 25.5654 53.926 25.2465 54.4641 25.2465C55.0023 25.2465 55.2814 25.5654 55.2814 26.1235V26.4623H54.7631V26.0886C54.7631 25.8394 54.6535 25.7448 54.4791 25.7448C54.3047 25.7448 54.195 25.8394 54.195 26.0886V27.9722C54.195 28.2214 54.3047 28.3111 54.4791 28.3111C54.6535 28.3111 54.7631 28.2214 54.7631 27.9722V27.4739ZM58.9359 27.4739H59.4542V27.9373C59.4542 28.4954 59.1751 28.8143 58.6369 28.8143C58.0988 28.8143 57.8197 28.4954 57.8197 27.9373V26.1235C57.8197 25.5654 58.0988 25.2465 58.6369 25.2465C59.1751 25.2465 59.4542 25.5654 59.4542 26.1235V26.4623H58.9359V26.0886C58.9359 25.8394 58.8263 25.7448 58.6519 25.7448C58.4775 25.7448 58.3679 25.8394 58.3679 26.0886V27.9722C58.3679 28.2214 58.4775 28.3111 58.6519 28.3111C58.8263 28.3111 58.9359 28.2214 58.9359 27.9722V27.4739ZM62.5855 25.7846V26.7563H63.338V27.2546H62.5855V28.2762H63.5323V28.7745H62.0374V25.2863H63.5323V25.7846H62.5855ZM62.1769 24.5488H62.74L63.0788 25.1019H62.6852L62.1769 24.5488ZM66.0507 26.1235C66.0507 25.5654 66.3248 25.2465 66.858 25.2465C67.3912 25.2465 67.6652 25.5654 67.6652 26.1235V26.2331H67.147V26.0886C67.147 25.8394 67.0473 25.7448 66.8729 25.7448C66.6985 25.7448 66.5989 25.8394 66.5989 26.0886C66.5989 26.3427 66.7085 26.5321 67.0673 26.846C67.5257 27.2497 67.6702 27.5387 67.6702 27.9373C67.6702 28.4954 67.3912 28.8143 66.853 28.8143C66.3148 28.8143 66.0358 28.4954 66.0358 27.9373V27.723H66.554V27.9722C66.554 28.2214 66.6637 28.3111 66.8381 28.3111C67.0125 28.3111 67.1221 28.2214 67.1221 27.9722C67.1221 27.7181 67.0125 27.5287 66.6537 27.2148C66.1952 26.8111 66.0507 26.5221 66.0507 26.1235ZM70.4179 28.7745H70.2086V28.2463H70.7368V28.7197L70.4976 29.2728H70.2734L70.4179 28.7745ZM77.5775 28.7745L76.9048 26.2481H76.8949V28.7745H76.4015V25.2863H77.0892L77.6423 27.3742H77.6523V25.2863H78.1406V28.7745H77.5775ZM81.2869 26.0886V27.9722C81.2869 28.2214 81.3966 28.316 81.571 28.316C81.7454 28.316 81.855 28.2214 81.855 27.9722V26.0886C81.855 25.8394 81.7454 25.7448 81.571 25.7448C81.3966 25.7448 81.2869 25.8394 81.2869 26.0886ZM80.7388 27.9373V26.1235C80.7388 25.5654 81.0328 25.2465 81.571 25.2465C82.1091 25.2465 82.4031 25.5654 82.4031 26.1235V27.9373C82.4031 28.4954 82.1091 28.8143 81.571 28.8143C81.0328 28.8143 80.7388 28.4954 80.7388 27.9373ZM84.8468 25.7846V25.2863H86.5411V25.7846H85.968V28.7745H85.4199V25.7846H84.8468ZM90.7338 28.7745H90.1757C90.1458 28.6848 90.1259 28.63 90.1259 28.3459V27.7978C90.1259 27.4739 90.0162 27.3543 89.7671 27.3543H89.5777V28.7745H89.0296V25.2863H89.8568C90.4249 25.2863 90.669 25.5504 90.669 26.0886V26.3627C90.669 26.7214 90.5544 26.9507 90.3102 27.0653V27.0752C90.5843 27.1899 90.674 27.449 90.674 27.8127V28.3509C90.674 28.5203 90.679 28.6449 90.7338 28.7745ZM89.8418 25.7846H89.5777V26.856H89.792C89.9963 26.856 90.1209 26.7663 90.1209 26.4872V26.1434C90.1209 25.8943 90.0362 25.7846 89.8418 25.7846ZM93.8303 25.7846V26.7563H94.5827V27.2546H93.8303V28.2762H94.7771V28.7745H93.2821V25.2863H94.7771V25.7846H93.8303ZM101.144 25.2863L101.543 27.7629H101.553L101.922 25.2863H102.684V28.7745H102.166V26.273H102.156L101.787 28.7745H101.269L100.87 26.3079H100.86V28.7745H100.382V25.2863H101.144ZM105.332 28.7745V25.2863H105.88V28.7745H105.332ZM108.459 26.1235C108.459 25.5654 108.733 25.2465 109.266 25.2465C109.799 25.2465 110.073 25.5654 110.073 26.1235V26.2331H109.555V26.0886C109.555 25.8394 109.455 25.7448 109.281 25.7448C109.106 25.7448 109.007 25.8394 109.007 26.0886C109.007 26.3427 109.116 26.5321 109.475 26.846C109.934 27.2497 110.078 27.5387 110.078 27.9373C110.078 28.4954 109.799 28.8143 109.261 28.8143C108.723 28.8143 108.444 28.4954 108.444 27.9373V27.723H108.962V27.9722C108.962 28.2214 109.071 28.3111 109.246 28.3111C109.42 28.3111 109.53 28.2214 109.53 27.9722C109.53 27.7181 109.42 27.5287 109.061 27.2148C108.603 26.8111 108.459 26.5221 108.459 26.1235ZM112.572 26.1235C112.572 25.5654 112.846 25.2465 113.379 25.2465C113.912 25.2465 114.186 25.5654 114.186 26.1235V26.2331H113.668V26.0886C113.668 25.8394 113.568 25.7448 113.394 25.7448C113.219 25.7448 113.12 25.8394 113.12 26.0886C113.12 26.3427 113.229 26.5321 113.588 26.846C114.047 27.2497 114.191 27.5387 114.191 27.9373C114.191 28.4954 113.912 28.8143 113.374 28.8143C112.836 28.8143 112.557 28.4954 112.557 27.9373V27.723H113.075V27.9722C113.075 28.2214 113.184 28.3111 113.359 28.3111C113.533 28.3111 113.643 28.2214 113.643 27.9722C113.643 27.7181 113.533 27.5287 113.174 27.2148C112.716 26.8111 112.572 26.5221 112.572 26.1235ZM116.754 28.7745V25.2863H117.302V28.7745H116.754ZM120.454 26.0886V27.9722C120.454 28.2214 120.563 28.316 120.738 28.316C120.912 28.316 121.022 28.2214 121.022 27.9722V26.0886C121.022 25.8394 120.912 25.7448 120.738 25.7448C120.563 25.7448 120.454 25.8394 120.454 26.0886ZM119.906 27.9373V26.1235C119.906 25.5654 120.2 25.2465 120.738 25.2465C121.276 25.2465 121.57 25.5654 121.57 26.1235V27.9373C121.57 28.4954 121.276 28.8143 120.738 28.8143C120.2 28.8143 119.906 28.4954 119.906 27.9373ZM125.344 28.7745L124.671 26.2481H124.661V28.7745H124.168V25.2863H124.856L125.409 27.3742H125.419V25.2863H125.907V28.7745H125.344ZM128.55 28.2463H129.078V28.7745H128.55V28.2463Z" fill="#FED23F"/>
</svg>
